<svg xmlns="http://www.w3.org/2000/svg" viewBox="0 0 64 64" width="64" height="64">
  <rect width="64" height="64" rx="14" fill="#2EAADC"/>
  <rect x="18" y="20" width="20" height="28" rx="3" fill="none" stroke="white" stroke-width="2.5"/>
  <path d="M24 20v-3a4 4 0 0 1 8 0v3" fill="none" stroke="white" stroke-width="2.5"/>
  <path d="M40 34c1-2 2-3 3-2s2 3 1 5-2 3-1 5 2 3 3 2" fill="none" stroke="white" stroke-width="2" stroke-linecap="round"/>
  <path d="M45 34c1-2 2-3 3-2s2 3 1 5-2 3-1 5 2 3 3 2" fill="none" stroke="white" stroke-width="2" stroke-linecap="round"/>
</svg>